<svg xmlns="http://www.w3.org/2000/svg" width="184" height="32" viewBox="0 0 184 32">
    <g fill="#FFF" fill-rule="evenodd">
        <path d="M0 8h9.169v10.04L14.048 8h9.889l-6.32 11.012 6.492 12.373h-9.44L9.235 20.89 9.17 31.385H0V8zm26.196 0h17.977v6.09h-9.005v2.493h9.005v6.09h-9.005v2.623h9.3v6.089H26.196V8zm26.54 15.287L44.779 8h9.212l1.53 6.544a1.949 1.949 0 0 0 1.898 1.505 1.92 1.92 0 0 0 1.851-1.413L61.086 8h8.972l-7.957 15.287v8.098h-9.365v-8.098zm23.593-9.004H70.5V8h21.023v6.283h-5.83v17.102H76.33V14.283zm39.867 9.264c0 2.828-.982 4.944-2.947 6.348-1.965 1.403-4.726 2.105-8.285 2.105-3.58 0-6.347-.702-8.3-2.105-1.954-1.404-2.931-3.52-2.931-6.348V8h9.365v15.158c0 .928.185 1.587.557 1.976.37.388.807.583 1.31.583.502 0 .938-.195 1.31-.583.37-.39.556-1.048.556-1.976V8h9.365v15.547zm12.198-5.798c.916 0 1.664-.173 2.243-.518.578-.346.867-.961.867-1.846 0-.864-.278-1.425-.835-1.685-.556-.259-1.293-.388-2.21-.388h-.851v4.437h.786zM118.439 8h13.982c1.266 0 2.401.103 3.406.308 1.004.205 1.85.54 2.537 1.004a4.507 4.507 0 0 1 1.572 1.83c.36.755.54 1.684.54 2.785 0 1.36-.338 2.521-1.015 3.482-.676.96-1.899 1.657-3.667 2.089 1.157.173 2.052.47 2.685.955.633.486 1.07 1.183 1.31 2.09.13.496.234 1.074.31 1.732.077.659.16 1.366.246 2.122.088.756.208 1.554.36 2.397.153.842.36 1.705.623 2.59h-9.169a14.786 14.786 0 0 1-.36-1.505 72.406 72.406 0 0 1-.311-1.75 47.5 47.5 0 0 1-.262-1.797 34.778 34.778 0 0 0-.246-1.652c-.109-.583-.327-.998-.655-1.247-.327-.248-.873-.372-1.637-.372h-1.08v8.324h-9.169V8zm24.657 0h11.232l5.01 14.154L159.403 8H167v23.385h-11.232l-5.01-14.251-.065 14.25h-7.597V8zM183.208 7h-1.552V1.6h-.032l-1.44 5.4h-1.519l-1.374-5.4h-.032V7h-1.552V0h2.57l1.18 4.77h.033L180.734 0h2.474v7zm-8.083-7v1.164h-1.795V7h-1.552V1.164H170V0h5.125z"/>
    </g>
</svg>
